<?xml version="1.0" standalone="no"?>
<!DOCTYPE svg PUBLIC "-//W3C//DTD SVG 20010904//EN"
 "http://www.w3.org/TR/2001/REC-SVG-20010904/DTD/svg10.dtd">
<svg version="1.0" xmlns="http://www.w3.org/2000/svg"
 width="500.000000pt" height="500.000000pt" viewBox="0 0 500.000000 500.000000"
 preserveAspectRatio="xMidYMid meet">
<metadata>
Created by potrace 1.11, written by Peter Selinger 2001-2013
</metadata>
<g transform="translate(0.000000,500.000000) scale(0.100000,-0.100000)"
fill="#000000" stroke="none">
<path d="M2622 3988 c-16 -16 -15 -43 3 -58 11 -9 15 -34 15 -99 0 -86 0 -87
-35 -121 l-35 -34 0 66 c0 49 4 67 15 72 37 14 4 73 -35 61 -24 -8 -27 -47 -5
-65 11 -9 15 -32 15 -79 0 -59 -3 -70 -25 -91 l-25 -23 0 130 c0 117 2 132 20
148 22 20 27 64 8 83 -21 21 -66 14 -83 -12 -18 -27 -8 -69 19 -79 14 -5 16
-29 16 -151 l0 -145 68 -3 67 -3 3 -85 3 -85 -36 -35 -35 -34 0 68 c0 48 5 72
15 83 28 28 -2 74 -39 60 -20 -8 -21 -56 -1 -63 24 -10 19 -157 -6 -180 -17
-15 -19 -32 -19 -156 0 -85 -4 -138 -10 -138 -5 0 -10 -20 -10 -45 0 -43 -1
-45 -30 -45 -29 0 -30 2 -30 44 0 24 -5 46 -10 48 -7 2 -11 102 -10 292 0 243
2 292 15 306 10 11 15 38 15 82 0 51 4 67 16 72 10 4 14 15 12 33 -2 22 -8 28
-27 28 -34 0 -50 -29 -28 -53 25 -28 24 -131 -3 -162 -18 -21 -20 -37 -20
-209 l0 -186 -52 52 -52 53 32 33 32 33 0 121 c0 101 3 124 16 131 9 5 14 18
12 33 -2 19 -9 24 -33 24 -25 0 -30 -4 -33 -28 -2 -18 2 -29 12 -33 13 -5 16
-26 16 -122 l0 -115 -22 19 -23 19 22 -26 23 -25 -30 -29 -30 -29 -27 27 c-25
25 -26 27 -10 45 14 15 17 40 17 132 0 94 3 117 18 134 16 20 16 20 0 7 -17
-12 -18 -9 -18 51 0 60 2 66 35 98 19 19 35 39 35 46 0 6 7 17 15 24 21 18 19
47 -6 60 -38 21 -68 -32 -34 -60 23 -19 19 -33 -20 -70 l-35 -34 0 -187 c0
-115 -4 -190 -10 -194 -7 -4 -10 67 -10 207 0 202 1 214 20 226 22 13 26 43
10 73 -22 39 -100 12 -100 -35 0 -9 11 -27 25 -40 l25 -23 -3 -222 -2 -221 92
-92 c73 -72 93 -99 93 -120 0 -16 -3 -28 -8 -28 -4 0 -41 34 -82 75 l-74 75
-58 0 -58 0 0 244 c0 207 -2 245 -15 256 -9 7 -13 20 -10 27 8 21 -13 53 -35
53 -11 0 -24 -9 -30 -21 -9 -16 -8 -25 6 -40 10 -11 24 -17 32 -14 31 12 42
-15 42 -101 0 -46 -3 -84 -7 -84 -3 0 -16 8 -27 17 -12 10 -9 4 6 -12 24 -27
27 -37 26 -103 0 -39 -2 -72 -3 -72 -2 0 -35 33 -74 73 l-71 72 0 91 c0 71 4
94 15 104 9 7 15 23 13 34 -2 16 -10 21 -33 21 -25 0 -30 -4 -33 -28 -2 -18 2
-29 12 -33 13 -5 16 -24 16 -103 l0 -96 80 -80 80 -80 0 -60 0 -60 -137 138
c-75 75 -139 137 -142 137 -3 0 59 -65 139 -145 l145 -145 60 0 60 0 83 -83
c80 -80 82 -84 82 -130 0 -26 -4 -47 -10 -47 -5 0 -10 -20 -10 -45 0 -38 -3
-45 -20 -45 -13 0 -20 -7 -20 -20 0 -17 -7 -20 -45 -20 -25 0 -45 -4 -45 -10
0 -6 -28 -10 -65 -10 -61 0 -65 2 -65 22 0 15 28 52 78 103 l77 80 -70 -68
c-39 -37 -74 -67 -78 -67 -4 0 -7 13 -7 28 0 18 11 38 30 57 26 25 30 35 30
86 0 42 4 58 16 63 20 7 15 45 -8 59 -12 8 -21 7 -32 -2 -20 -17 -21 -50 -1
-57 16 -6 22 -94 7 -94 -4 0 -27 19 -50 43 -30 31 -42 51 -42 73 0 24 -22 51
-130 159 l-130 130 0 112 c0 63 4 113 9 113 16 0 23 40 11 55 -18 21 -48 18
-61 -6 -9 -17 -7 -25 11 -44 20 -21 21 -32 19 -130 l-3 -106 132 -132 c100
-100 132 -138 132 -158 0 -17 16 -41 50 -74 28 -27 50 -54 50 -60 0 -7 -11
-22 -25 -35 -21 -20 -25 -33 -25 -79 l0 -55 -50 49 -50 49 0 117 0 117 -185
179 c-170 165 -185 182 -185 214 0 19 5 40 10 45 7 7 2 10 -15 10 -18 0 -22
-3 -14 -12 6 -7 9 -28 7 -46 -3 -30 -6 -33 -42 -36 -29 -3 -43 2 -58 17 -23
25 -32 26 -52 5 -20 -19 -20 -29 0 -48 19 -20 29 -20 48 -1 9 9 33 15 63 15
43 0 53 -4 83 -35 l34 -35 -120 0 c-108 0 -123 2 -139 20 -23 25 -57 26 -78 2
-22 -24 -21 -55 1 -75 25 -23 55 -21 77 3 16 18 31 20 149 20 l131 0 133 -133
132 -132 0 -115 0 -116 58 -57 58 -57 67 0 c51 0 69 -4 73 -15 4 -10 20 -15
51 -15 42 0 44 -1 41 -27 -3 -25 -7 -28 -43 -29 -21 -1 -41 -7 -43 -13 -2 -7
-39 -11 -106 -11 l-102 0 -52 53 -52 53 0 139 0 140 -138 138 -137 137 -163 0
c-149 0 -164 2 -182 20 -26 26 -60 12 -60 -25 0 -31 35 -43 59 -21 15 13 45
16 177 16 l159 0 137 -136 136 -137 1 -88 c0 -49 -3 -89 -7 -89 -3 0 -40 33
-82 72 l-75 73 83 -85 c62 -65 82 -92 82 -113 0 -15 -2 -27 -4 -27 -2 0 -39
36 -82 80 l-77 80 -60 0 -60 0 -128 126 c-102 101 -129 133 -131 158 -3 27 -7
31 -33 31 -25 0 -31 -4 -33 -27 -2 -20 2 -28 18 -33 12 -4 24 -4 28 -1 6 7
252 -233 252 -246 0 -5 -21 -8 -48 -8 l-47 0 -128 128 c-108 108 -127 132
-127 158 0 18 -7 37 -15 44 -22 18 -66 15 -82 -6 -29 -40 -4 -84 50 -84 28 0
50 -19 162 -130 l130 -130 115 0 115 0 140 -140 140 -140 112 0 c69 0 113 -4
113 -10 0 -5 20 -10 45 -10 43 0 45 -1 45 -30 0 -29 -2 -30 -45 -30 -25 0 -45
-4 -45 -9 0 -4 -33 -11 -72 -14 l-73 -6 -40 37 c-28 26 -32 28 -12 6 15 -16
27 -33 27 -37 0 -4 -31 -7 -70 -7 -53 0 -71 4 -78 16 -5 9 -18 14 -33 12 -19
-2 -24 -9 -24 -33 0 -31 27 -47 46 -28 6 6 1 9 -13 9 -27 -1 -37 31 -13 40 21
9 33 -5 15 -16 -10 -6 27 -10 105 -10 l120 0 -25 -25 c-26 -26 -65 -30 -247
-26 l-53 1 0 53 0 52 -123 123 -122 122 -115 0 -115 0 -100 100 c-63 63 -100
108 -100 121 0 26 -26 45 -49 36 -39 -15 -25 -67 18 -67 14 0 55 -34 116 -95
l95 -95 -81 0 c-80 0 -80 0 -117 38 -27 28 -36 44 -31 57 7 17 -17 45 -37 45
-10 0 -39 -30 -39 -40 0 -17 33 -41 50 -35 12 4 29 -7 54 -35 l36 -40 203 0
202 0 123 -123 c120 -120 122 -123 122 -167 l0 -45 -143 143 -142 142 -226 0
c-213 0 -227 1 -244 20 -23 25 -57 26 -78 2 -22 -24 -21 -55 1 -75 25 -23 55
-21 77 3 17 19 31 20 245 20 l226 0 67 -67 67 -67 -33 -36 c-32 -34 -32 -35
-1 -7 16 15 34 27 40 27 5 0 40 -31 78 -69 l69 -70 141 1 141 0 41 38 c45 41
84 48 131 22 12 -7 36 -12 53 -12 28 0 31 -3 28 -27 -2 -22 -9 -28 -28 -29
-60 -3 -60 -3 -60 -34 0 -29 2 -30 45 -30 38 0 45 -3 45 -20 0 -13 7 -20 20
-20 17 0 20 -7 20 -45 0 -25 5 -45 10 -45 6 0 10 -22 10 -50 l0 -50 -51 0 -51
0 -130 125 c-72 69 -138 125 -147 124 -12 0 -11 -2 4 -8 11 -5 29 -18 39 -30
l19 -21 -173 0 -174 0 -33 32 -33 32 -255 3 c-241 2 -256 3 -277 23 -26 24
-51 26 -72 4 -27 -27 -15 -84 18 -84 5 0 2 6 -8 13 -36 26 2 96 40 72 22 -14
19 -29 -8 -37 l-23 -6 23 -1 c26 -1 29 -16 6 -29 -11 -6 -13 -12 -6 -16 6 -4
21 5 33 18 l22 26 241 -1 c239 -1 240 -1 269 -25 l29 -24 -32 0 c-19 0 -29 -4
-25 -11 4 -6 19 -10 33 -9 15 1 87 2 161 1 117 -1 132 -3 121 -16 -11 -13 -58
-15 -309 -15 l-298 0 -23 -25 c-15 -15 -30 -23 -41 -20 -16 6 -49 -18 -49 -35
0 -13 30 -40 44 -40 20 0 39 27 32 45 -3 9 4 27 16 40 l22 25 274 0 c260 0
274 -1 261 -17 -13 -17 -13 -17 7 0 11 9 30 17 41 17 11 0 28 9 38 20 12 14
31 20 59 20 l41 0 -80 -80 -80 -80 -185 0 c-173 0 -187 1 -203 20 -24 28 -63
26 -83 -5 -36 -55 32 -111 80 -66 22 21 32 22 207 22 l184 0 92 92 93 92 70
-70 70 -69 -22 -23 c-19 -20 -31 -23 -105 -23 -46 0 -83 4 -83 9 0 5 -9 13
-20 16 -42 13 -69 -44 -31 -64 14 -8 25 -6 44 9 20 16 41 20 103 20 66 0 81 3
101 22 21 20 24 20 41 5 13 -12 37 -17 85 -17 l67 0 0 60 c0 33 4 60 10 60 6
0 10 20 10 45 0 43 1 45 30 45 29 0 30 -2 30 -45 0 -25 5 -45 10 -45 6 0 10
-54 10 -142 l0 -142 -58 57 -58 58 -238 -2 c-210 -1 -239 1 -256 16 -14 13
-23 14 -39 5 -27 -14 -27 -46 0 -60 16 -9 24 -8 38 4 15 14 53 16 262 16 l244
0 54 -56 55 -55 -54 -54 -54 -55 -121 0 -121 0 -54 55 c-52 52 -57 55 -106 55
-38 0 -55 5 -69 20 -20 22 -64 27 -83 8 -7 -7 -12 -24 -12 -40 0 -54 75 -75
100 -27 8 15 21 19 58 19 45 0 51 -3 107 -60 l59 -60 120 0 120 0 63 62 63 62
29 -28 c16 -15 32 -28 35 -27 3 1 11 1 18 1 6 0 69 -57 140 -127 86 -85 128
-134 128 -149 0 -30 27 -51 48 -37 34 21 19 80 -17 68 -11 -3 -59 37 -151 130
-104 104 -141 135 -161 135 -52 0 -59 21 -59 193 0 98 4 157 10 157 6 0 10 20
10 45 0 43 1 45 30 45 29 0 30 -2 30 -45 0 -25 5 -45 10 -45 6 0 10 -60 10
-160 l0 -160 47 0 c46 0 47 -1 175 -127 128 -127 128 -128 128 -174 0 -30 6
-51 15 -59 9 -7 14 -19 11 -26 -7 -19 18 -47 39 -43 10 2 23 11 28 21 14 21
-7 48 -37 48 -32 0 -46 19 -46 64 0 39 -6 47 -127 168 -70 71 -121 128 -113
128 8 0 91 -75 183 -168 144 -144 167 -172 167 -198 0 -60 65 -86 97 -38 15
24 15 29 2 53 -11 19 -23 26 -47 27 -27 0 -47 15 -122 89 -50 49 -90 93 -90
97 0 5 13 8 28 8 20 0 42 -15 85 -58 32 -32 55 -61 51 -64 -3 -4 -3 -16 1 -28
5 -16 13 -20 33 -18 23 2 27 8 27 33 0 26 -4 30 -31 33 -22 2 -46 19 -85 58
-47 48 -58 54 -94 54 -37 0 -47 6 -105 65 l-64 65 40 0 c35 0 46 -7 94 -55 52
-52 57 -55 105 -55 50 0 51 0 143 -93 60 -60 92 -100 92 -114 0 -28 29 -45 53
-32 33 19 8 79 -26 66 -9 -3 -54 34 -113 94 l-99 99 -50 0 c-47 0 -54 4 -93
43 -23 24 -40 46 -37 48 3 3 -1 6 -8 6 -6 1 -61 4 -122 7 l-110 6 -3 145 c-2
94 1 145 8 145 5 0 10 20 10 45 0 43 1 45 30 45 29 0 30 -2 30 -44 0 -24 5
-46 10 -48 17 -5 25 -194 10 -213 -11 -13 -10 -14 4 -9 9 3 16 15 16 27 0 20
0 20 24 -2 22 -21 32 -22 189 -22 133 0 168 -3 177 -14 18 -22 57 -19 65 5 12
39 -47 72 -61 35 -5 -12 -34 -15 -172 -15 l-166 0 -28 27 c-20 19 -28 36 -28
62 l0 35 33 -32 33 -32 190 0 190 0 54 -55 54 -55 106 0 106 0 53 53 c38 40
58 53 74 50 50 -9 82 64 41 94 -39 28 -87 5 -86 -43 0 -21 -12 -42 -46 -76
l-46 -48 -85 0 -85 0 29 30 c33 34 78 40 107 13 15 -13 23 -15 36 -7 23 15 27
48 8 64 -13 10 -20 9 -41 -4 -13 -9 -37 -16 -52 -16 -19 0 -41 -13 -70 -42
l-43 -42 -58 57 -58 57 -187 0 -187 0 0 23 c0 51 21 57 215 57 l179 0 36 -32
35 -33 -29 33 -30 32 81 0 81 0 53 55 c43 45 59 55 88 56 32 2 33 2 7 6 l-28
5 23 26 c13 15 -15 -10 -63 -56 l-86 -83 -266 2 -267 1 -19 -24 c-11 -13 -19
-29 -20 -37 0 -10 -8 -7 -25 9 -26 24 -35 80 -14 80 6 0 9 7 5 15 -10 26 5 73
25 78 13 3 17 11 13 21 -5 13 2 16 40 16 32 0 46 4 46 13 0 29 64 5 116 -44
l52 -48 157 1 157 1 81 79 82 78 55 0 c53 0 58 -2 100 -45 39 -40 49 -45 85
-43 40 1 40 1 5 5 -36 5 -127 77 -110 88 5 3 60 3 122 0 93 -5 117 -10 134
-26 38 -36 94 -15 94 36 0 24 -33 55 -58 55 -7 0 -24 -11 -37 -25 -25 -24 -27
-24 -201 -24 -172 1 -175 1 -158 20 15 17 32 19 174 19 144 0 158 2 175 20 10
11 28 20 41 20 29 0 46 29 33 53 -19 33 -79 8 -66 -27 3 -8 -5 -23 -17 -35
-21 -19 -33 -21 -178 -21 l-155 0 -104 -100 c-95 -91 -107 -100 -144 -101 -55
-2 -229 1 -232 4 -1 2 43 49 98 105 105 107 132 121 170 86 27 -24 61 -9 57
24 -2 21 -9 28 -31 30 -18 2 -29 -2 -33 -12 -4 -10 -18 -16 -38 -16 -28 0 -48
-15 -141 -110 l-109 -110 -46 45 c-37 37 -52 45 -82 45 -20 0 -38 4 -40 9 -1
6 -22 11 -46 12 -48 3 -56 10 -47 39 5 16 15 20 46 20 26 0 42 5 45 15 12 29
70 15 111 -27 20 -21 42 -38 47 -38 6 0 -7 18 -28 39 l-38 39 68 -2 68 -3 76
73 75 73 105 1 106 0 44 -45 44 -45 121 0 121 0 29 30 c20 21 38 30 61 30 59
0 83 51 44 90 -24 24 -38 25 -68 4 -17 -12 -22 -24 -20 -45 2 -20 -6 -37 -27
-59 -28 -30 -30 -30 -129 -30 l-99 0 23 25 c27 28 75 34 84 9 4 -10 15 -14 33
-12 22 2 29 9 31 30 4 33 -30 48 -57 24 -10 -9 -31 -16 -47 -16 -21 0 -40 -10
-59 -30 l-29 -30 -38 37 c-21 20 -38 42 -38 48 0 6 20 31 45 55 l45 44 32 -30
c26 -23 28 -24 10 -3 -12 14 -22 28 -22 32 0 4 44 7 98 7 l98 0 39 40 c25 26
45 38 56 35 19 -6 49 19 49 40 0 18 -34 37 -54 29 -17 -7 -29 -32 -20 -46 4
-5 -11 -27 -32 -49 l-38 -39 -109 0 -108 0 -58 -55 -58 -55 -115 0 -115 0 -69
-72 -69 -72 -105 3 c-58 2 -110 7 -115 11 -6 5 -28 10 -50 12 -35 3 -40 6 -40
28 0 23 5 25 48 28 26 2 47 7 47 13 0 5 47 9 108 9 l108 0 64 65 64 65 126 0
126 0 59 60 60 60 79 0 c61 0 84 -4 98 -17 15 -13 23 -15 36 -7 25 16 27 51 3
64 -17 8 -24 7 -41 -10 -17 -17 -33 -20 -103 -20 l-83 0 -59 -60 -59 -60 -90
0 -89 0 19 23 19 22 -26 -22 c-14 -13 -37 -23 -52 -23 -26 0 -27 2 -27 55 0
52 1 55 25 55 14 0 25 -4 25 -9 0 -5 9 -13 20 -16 42 -13 69 44 31 64 -14 8
-25 6 -45 -10 -25 -20 -56 -20 -56 -1 0 5 22 30 50 56 49 46 50 46 119 46 53
0 70 -4 75 -16 7 -19 45 -15 59 7 6 9 7 24 4 33 -8 20 -56 21 -63 1 -5 -11
-23 -15 -72 -15 l-66 0 39 40 39 40 151 0 151 0 39 -40 c27 -27 39 -48 37 -63
-4 -31 20 -59 51 -59 36 0 57 19 57 51 0 35 -17 51 -54 51 -22 0 -42 11 -71
40 l-40 39 -164 2 -163 1 -44 -43 -44 -43 0 62 c0 57 3 65 36 102 l36 40 157
0 c176 0 197 -7 203 -63 3 -28 6 -32 33 -32 25 0 31 4 33 27 2 19 -2 28 -17
33 -12 3 -25 4 -29 1 -5 -3 -20 6 -32 19 -23 24 -28 25 -154 25 l-130 0 44 45
c40 40 49 45 90 45 25 0 50 -4 55 -9 6 -6 10 -1 10 14 0 15 -4 20 -10 14 -5
-5 -30 -9 -55 -9 -42 0 -50 -4 -95 -50 -31 -31 -58 -50 -72 -50 -21 0 -23 4
-23 60 0 52 4 64 31 95 18 21 40 35 54 35 44 0 59 51 19 67 -23 8 -49 -10 -49
-35 0 -11 -17 -38 -38 -61 -35 -39 -37 -45 -37 -107 0 -62 -2 -68 -35 -100
-34 -32 -35 -37 -35 -104 l0 -71 -50 -53 c-30 -32 -50 -62 -50 -76 0 -22 -1
-23 -20 -5 -35 32 -18 133 19 111 32 -20 57 38 27 63 -20 17 -58 -4 -54 -28 2
-10 -3 -26 -11 -35 -23 -27 -15 -96 15 -127 18 -19 24 -36 24 -70 0 -40 -5
-49 -50 -94 l-50 -49 0 44 c0 25 6 51 15 60 19 21 10 47 -18 56 -14 4 -25 1
-34 -12 -17 -23 -16 -29 2 -48 9 -9 15 -34 15 -65 l0 -51 -99 0 c-75 0 -100 3
-104 14 -4 10 -17 12 -46 9 -40 -5 -41 -4 -41 26 0 30 2 31 40 31 28 0 43 5
47 16 3 8 15 14 27 13 46 -3 46 -3 46 94 l0 92 80 80 80 80 0 76 c0 88 14 109
71 109 28 0 44 9 83 49 34 35 59 51 80 53 25 2 32 8 34 31 2 18 -2 29 -14 34
-23 9 -49 -10 -49 -36 0 -11 -21 -41 -45 -66 -33 -34 -52 -45 -74 -45 -30 0
-27 3 63 94 65 66 99 92 111 89 24 -6 56 12 62 35 13 48 -37 86 -81 62 -16 -8
-21 -20 -21 -48 0 -34 -10 -47 -120 -157 l-120 -120 0 -77 c0 -42 -4 -80 -10
-83 -6 -4 -10 27 -10 87 l0 93 110 110 110 110 0 51 c0 38 4 53 16 58 10 4 14
15 12 33 -3 24 -8 28 -33 28 -25 0 -30 -4 -33 -28 -2 -18 2 -29 12 -33 12 -5
16 -20 16 -58 l-1 -51 -109 -110 -110 -110 -1 -80 c-1 -44 -1 -89 0 -100 1
-13 -24 -46 -69 -90 l-70 -69 0 -83 c0 -73 -2 -83 -18 -83 -10 0 -22 4 -28 9
-5 5 -27 11 -49 13 -27 2 -39 7 -37 16 1 8 -7 16 -18 19 -16 4 -20 14 -20 44
0 21 -4 41 -10 44 -5 3 -10 23 -10 44 l0 37 73 0 c70 -1 72 0 75 25 2 14 19
41 38 60 18 18 34 43 34 55 0 12 7 27 15 34 20 17 19 47 -3 59 -39 21 -71 -31
-37 -59 8 -7 15 -20 15 -29 0 -17 -39 -61 -53 -61 -4 0 -7 31 -7 68 l0 68 50
49 50 49 0 91 0 90 78 77 c63 64 81 76 100 71 47 -12 82 56 46 91 -36 36 -103
2 -90 -47 4 -19 -8 -37 -74 -102 l-80 -80 0 -90 0 -91 -40 -39 -40 -39 0 39
c0 26 7 47 23 64 l22 26 -22 -19 -23 -19 0 99 0 100 74 73 c44 44 79 71 85 66
16 -9 41 13 41 35 0 10 -7 23 -16 31 -20 16 -49 0 -49 -27 -1 -27 -14 -46 -27
-38 -6 4 -8 3 -5 -3 3 -5 -21 -36 -53 -68 l-60 -59 0 -119 c0 -108 -2 -119
-17 -113 -15 6 -16 5 -1 -11 13 -15 15 -39 10 -150 l-5 -133 -33 0 c-29 0 -34
3 -34 24 0 13 7 27 16 30 20 7 15 45 -8 59 -12 8 -21 7 -32 -2 -20 -17 -21
-50 -1 -57 8 -4 15 -17 15 -29 0 -20 -6 -24 -37 -27 -38 -3 -38 -3 -41 -50 -2
-27 -7 -48 -13 -48 -5 0 -9 -20 -9 -45 0 -43 -1 -45 -30 -45 -29 0 -30 2 -30
45 0 25 -4 45 -10 45 -6 0 -10 31 -10 73 l0 72 83 83 82 82 -1 99 c-1 98 0
101 27 127 18 17 29 38 29 55 0 15 7 29 15 33 20 7 19 55 -1 63 -9 3 -24 2
-33 -4 -22 -14 -26 -52 -7 -59 22 -8 20 -47 -2 -67 -10 -10 -21 -17 -24 -17
-3 0 -5 31 -4 70 l1 70 73 73 c60 61 78 73 98 69 51 -10 84 56 46 91 -39 35
-99 3 -90 -47 4 -20 -9 -38 -74 -103 l-78 -78 0 -185 0 -186 -68 -67 c-37 -37
-70 -67 -73 -67 -3 0 -5 9 -4 20 1 12 25 44 53 73 l52 53 0 189 0 189 48 51
47 50 -47 -45 -48 -44 0 75 c0 68 3 78 25 99 14 13 28 21 31 17 13 -13 45 14
42 35 -7 50 -68 44 -68 -7 0 -12 -9 -30 -20 -40 -19 -17 -20 -31 -20 -283 0
-250 -1 -264 -17 -251 -17 13 -17 13 -1 -7 17 -19 16 -22 -37 -74 l-55 -54 0
-113 c0 -69 -4 -113 -10 -113 -5 0 -10 -20 -10 -45 0 -43 -1 -45 -30 -45 -28
0 -30 2 -30 39 0 22 -4 43 -10 46 -6 4 -10 63 -10 143 l0 138 55 54 55 54 0
103 0 103 -60 0 c-33 0 -60 4 -60 8 0 4 27 34 60 67 l60 59 0 92 c0 72 3 93
15 98 28 10 11 66 -20 66 -6 0 -16 -5 -23 -12z m48 -23 c0 -21 -20 -28 -21 -8
-1 17 -2 17 -6 1 -2 -10 -9 -18 -14 -18 -14 0 -11 38 4 43 18 6 37 -3 37 -18z
m178 -3 c2 -15 -2 -22 -12 -22 -10 0 -13 6 -9 18 6 15 5 15 -10 3 -19 -15 -23
-1 -5 17 17 17 32 10 36 -16z m-324 2 c20 -19 20 -38 1 -54 -13 -11 -15 -8
-15 14 0 14 -4 26 -10 26 -5 0 -10 -12 -10 -26 0 -22 -2 -25 -15 -14 -8 7 -15
18 -15 26 0 14 27 44 40 44 5 0 16 -7 24 -16z m-179 -44 c-6 -9 -10 -9 -16 1
-6 10 -9 11 -9 2 0 -7 -4 -13 -10 -13 -14 0 -12 37 3 43 17 6 41 -18 32 -33z
m-101 -12 c12 -16 13 -26 4 -42 -12 -21 -12 -21 -17 2 -6 24 -27 27 -25 4 3
-20 -21 -8 -25 13 -3 17 22 45 40 45 4 0 15 -10 23 -22z m791 -13 c0 -24 -5
-31 -25 -34 -24 -3 -24 -2 -7 16 22 25 10 39 -15 16 -17 -15 -18 -15 -18 4 0
27 10 34 40 31 20 -2 25 -8 25 -33z m-455 -40 c6 -8 8 -20 4 -26 -5 -9 -10 -7
-15 7 -7 17 -8 17 -8 2 -1 -24 -21 -23 -21 0 0 33 20 42 40 17z m-511 -8 c8
-10 7 -17 -1 -25 -18 -18 -38 -14 -38 6 0 32 20 42 39 19z m1059 -35 c2 -15
-2 -22 -12 -22 -10 0 -13 6 -9 18 6 15 5 15 -10 3 -19 -15 -23 -1 -5 17 17 17
32 10 36 -16z m-1161 2 c3 -8 1 -20 -6 -27 -8 -8 -11 -6 -12 9 0 19 -1 19 -8
0 -5 -14 -10 -16 -15 -7 -11 17 0 41 19 41 9 0 18 -7 22 -16z m490 0 c3 -8 1
-20 -6 -27 -8 -8 -11 -6 -12 9 0 19 -1 19 -8 0 -5 -14 -10 -16 -15 -7 -11 17
0 41 19 41 9 0 18 -7 22 -16z m802 -2 c13 -24 -4 -52 -31 -52 -20 0 -20 1 -5
18 10 10 14 22 10 25 -3 4 -15 0 -25 -10 -17 -15 -18 -15 -18 4 0 11 3 23 7
26 13 14 53 7 62 -11z m-1449 -57 c10 -12 10 -19 2 -27 -9 -9 -12 -8 -12 6 0
9 -5 14 -10 11 -6 -4 -8 -11 -5 -16 4 -5 1 -9 -4 -9 -12 0 -15 33 -4 43 10 11
19 8 33 -8z m1557 -11 c3 -8 1 -20 -6 -27 -8 -8 -11 -6 -12 9 0 19 -1 19 -8 0
-5 -14 -10 -16 -15 -7 -11 17 0 41 19 41 9 0 18 -7 22 -16z m-1000 -60 c3 -8
1 -20 -6 -27 -8 -8 -11 -6 -12 9 0 19 -1 19 -8 0 -5 -14 -10 -16 -15 -7 -11
17 0 41 19 41 9 0 18 -7 22 -16z m530 0 c3 -8 1 -20 -6 -27 -8 -8 -11 -6 -12
9 0 19 -1 19 -8 0 -5 -14 -10 -16 -15 -7 -11 17 0 41 19 41 9 0 18 -7 22 -16z
m574 -30 c16 -19 2 -47 -27 -53 -18 -3 -18 -3 -1 17 10 11 14 23 9 26 -5 3
-15 -1 -22 -9 -15 -18 -30 -19 -30 -2 0 34 48 49 71 21z m-1961 -75 c0 -5 -4
-7 -10 -4 -5 3 -10 1 -10 -4 0 -6 5 -11 12 -11 9 0 9 -3 0 -12 -15 -15 -43 7
-35 28 6 16 43 19 43 3z m2053 -3 c6 -14 -10 -36 -26 -36 -5 0 -3 7 4 16 12
15 11 16 -9 10 -17 -6 -21 -4 -16 8 8 20 40 21 47 2z m-986 -42 c3 -8 1 -20
-6 -27 -8 -8 -11 -6 -12 9 0 19 -1 19 -8 0 -5 -14 -10 -16 -15 -7 -11 17 0 41
19 41 9 0 18 -7 22 -16z m848 -18 c0 -11 -6 -21 -14 -24 -10 -3 -12 0 -8 11 4
11 2 14 -9 10 -14 -5 -19 8 -7 21 13 13 38 1 38 -18z m-2000 -15 c3 -5 -5 -11
-17 -13 -29 -4 -26 -21 4 -29 20 -5 20 -7 6 -13 -39 -17 -69 11 -54 50 6 16
51 19 61 5z m-125 -91 c0 -5 -6 -10 -12 -10 -10 0 -9 -3 1 -9 10 -6 10 -10 1
-16 -16 -10 -34 10 -27 29 7 17 37 22 37 6z m-74 -68 c14 -10 26 -42 14 -42
-5 0 -12 5 -15 10 -3 6 -10 10 -16 10 -14 0 -11 -28 4 -33 6 -2 8 -8 4 -13
-11 -11 -41 9 -45 30 -7 32 28 56 54 38z m142 -31 c3 -10 0 -12 -11 -8 -11 4
-14 2 -10 -9 6 -16 -12 -19 -22 -4 -11 17 3 42 22 38 9 -2 18 -9 21 -17z
m1659 -6 c7 -21 -6 -33 -16 -16 -7 11 -9 11 -13 0 -3 -8 -9 -11 -13 -7 -12 11
3 38 20 38 9 0 18 -7 22 -15z m828 -41 c0 -22 -36 -27 -43 -5 -3 10 0 12 11 8
12 -4 14 -2 10 10 -4 11 -2 14 8 11 8 -3 14 -13 14 -24z m-1668 -50 c3 -8 1
-20 -6 -27 -8 -8 -11 -6 -12 9 0 19 -1 19 -8 0 -5 -14 -10 -16 -15 -7 -11 17
0 41 19 41 9 0 18 -7 22 -16z m680 0 c3 -8 1 -20 -6 -27 -8 -8 -11 -6 -12 9 0
19 -1 19 -8 0 -5 -14 -10 -16 -15 -7 -11 17 0 41 19 41 9 0 18 -7 22 -16z
m423 -84 c0 -10 -7 -21 -16 -24 -11 -4 -15 -2 -11 8 4 10 1 13 -9 9 -17 -6
-19 8 -3 24 15 15 39 5 39 -17z m-2179 3 c12 -15 12 -16 -5 -10 -14 6 -17 4
-12 -8 3 -9 0 -15 -8 -15 -19 0 -27 25 -13 39 15 15 22 14 38 -6z m2466 -19
c8 -21 -12 -38 -34 -29 -17 7 -17 8 2 15 18 8 18 9 2 9 -10 1 -15 6 -12 11 9
15 35 12 42 -6z m341 -6 c19 -19 14 -56 -8 -63 -23 -7 -50 10 -50 31 0 12 4
12 20 2 27 -17 37 -2 15 22 -14 16 -15 20 -4 20 8 0 20 -5 27 -12z m-2848
-110 c0 -6 -7 -8 -14 -5 -10 4 -13 1 -9 -9 4 -10 0 -12 -11 -8 -19 7 -21 40
-3 47 14 5 37 -11 37 -25z m1350 -33 c0 -28 -4 -35 -20 -35 -16 0 -20 7 -20
35 0 28 4 35 20 35 16 0 20 -7 20 -35z m120 0 c0 -24 -5 -35 -15 -35 -10 0
-15 11 -15 35 0 24 5 35 15 35 10 0 15 -11 15 -35z m130 0 c0 -28 -4 -35 -20
-35 -16 0 -20 7 -20 35 0 28 4 35 20 35 16 0 20 -7 20 -35z m120 0 c0 -24 -5
-35 -15 -35 -10 0 -15 11 -15 35 0 24 5 35 15 35 10 0 15 -11 15 -35z m596 24
c9 -15 -21 -43 -37 -33 -9 5 -8 9 7 15 17 7 17 8 2 8 -10 1 -18 6 -18 11 0 14
37 13 46 -1z m494 -8 c0 -23 -15 -35 -31 -25 -8 4 -7 9 2 15 10 6 11 9 2 9 -7
0 -13 5 -13 10 0 6 9 10 20 10 13 0 20 -7 20 -19z m100 4 c13 -16 6 -35 -15
-35 -18 0 -28 17 -21 35 7 19 20 19 36 0z m-1150 -315 l0 -240 -22 -1 c-75 -3
-452 1 -456 5 -3 3 -4 56 -4 118 0 62 1 168 1 236 l1 122 240 0 240 0 0 -240z
m338 209 c2 -19 1 -21 -8 -9 -8 12 -12 13 -19 2 -7 -11 -9 -11 -14 1 -6 17 12
39 28 34 5 -2 11 -14 13 -28z m-838 -25 c0 -11 -9 -14 -37 -12 -52 4 -56 28
-4 28 30 0 41 -4 41 -16z m590 1 c0 -16 -64 -22 -74 -6 -9 14 5 21 41 21 23 0
33 -5 33 -15z m-1895 -4 c3 -5 -5 -11 -17 -13 -29 -4 -26 -21 4 -29 20 -5 20
-7 6 -13 -39 -17 -69 11 -54 50 6 16 51 19 61 5z m2955 -66 c15 -18 10 -45
-12 -59 -22 -14 -34 -1 -18 19 17 20 5 32 -15 15 -13 -10 -15 -9 -15 8 0 31
39 42 60 17z m-1652 -52 c-4 -20 -54 -31 -70 -15 -17 17 1 32 38 32 28 0 35
-4 32 -17z m590 0 c-4 -22 -57 -30 -69 -12 -12 20 -1 29 37 29 28 0 35 -4 32
-17z m890 -6 c2 -9 -4 -20 -13 -23 -21 -9 -33 5 -15 16 13 8 12 10 -3 10 -10
0 -15 5 -12 11 10 15 39 6 43 -14z m207 -61 c0 -11 -6 -21 -13 -24 -7 -2 -10
2 -6 12 5 12 2 15 -10 10 -12 -5 -15 -2 -10 10 9 23 39 16 39 -8z m-568 -42
c7 -19 -11 -39 -27 -29 -9 6 -9 10 1 16 10 6 11 9 2 9 -7 0 -13 5 -13 10 0 16
30 11 37 -6z m-1117 -20 c0 -10 -12 -14 -40 -14 -32 0 -40 4 -40 18 0 14 7 17
40 14 26 -3 40 -9 40 -18z m590 1 c0 -10 -10 -15 -34 -15 -21 0 -36 6 -40 15
-4 12 3 15 34 15 29 0 40 -4 40 -15z m1118 -54 c5 -32 -23 -54 -50 -40 -21 11
-15 31 6 23 8 -3 17 -1 21 5 3 6 1 12 -4 12 -6 1 -15 3 -21 4 -5 1 -13 3 -16
4 -3 0 -2 6 1 12 4 5 19 9 33 7 20 -2 28 -10 30 -27z m-1708 -69 c0 -14 -8
-17 -40 -17 -32 0 -40 3 -40 17 0 14 8 18 40 18 32 0 40 -4 40 -18z m588 1
c-2 -13 -13 -18 -38 -17 -19 0 -34 4 -32 7 1 4 2 12 2 17 0 6 16 10 36 10 28
0 35 -3 32 -17z m-498 -113 c0 -33 -3 -40 -20 -40 -17 0 -20 7 -20 40 0 33 3
40 20 40 17 0 20 -7 20 -40z m120 5 c0 -24 -5 -35 -15 -35 -10 0 -15 11 -15
35 0 24 5 35 15 35 10 0 15 -11 15 -35z m128 -2 c-2 -27 -8 -39 -20 -41 -15
-3 -18 4 -18 37 0 35 3 41 21 41 17 0 20 -5 17 -37z m122 2 c0 -24 -5 -35 -15
-35 -10 0 -15 11 -15 35 0 24 5 35 15 35 10 0 15 -11 15 -35z m-1515 -85 c-3
-6 1 -7 9 -4 9 3 16 2 16 -4 0 -15 -28 -34 -40 -27 -16 10 -12 45 6 45 8 0 12
-4 9 -10z m230 -49 c3 -5 -5 -11 -17 -13 -29 -4 -26 -21 4 -29 20 -5 20 -7 6
-13 -39 -17 -69 11 -54 50 6 16 51 19 61 5z m2206 -7 c16 -19 2 -47 -27 -53
-16 -3 -17 -1 -5 13 18 22 5 33 -19 18 -16 -10 -20 -10 -20 1 0 34 48 49 71
21z m-1706 -24 c3 -5 -2 -11 -12 -11 -17 -1 -17 -2 0 -6 23 -6 22 -23 -2 -23
-26 0 -36 17 -21 35 14 17 26 19 35 5z m1545 -50 c0 -10 -7 -20 -15 -23 -18
-7 -30 9 -13 17 11 5 11 7 0 12 -17 8 -5 24 13 17 8 -3 15 -13 15 -23z m-1662
-11 c-11 -8 -11 -10 0 -18 11 -7 11 -9 -1 -14 -23 -9 -43 19 -27 37 6 8 18 12
27 9 12 -5 12 -7 1 -14z m1332 -34 c15 -18 5 -35 -21 -35 -21 0 -27 19 -6 21
9 0 9 2 -1 6 -6 2 -10 9 -6 14 8 13 20 11 34 -6z m-1300 -80 c11 -13 8 -15
-14 -15 -14 0 -26 -4 -26 -10 0 -5 12 -10 26 -10 22 0 25 -2 14 -15 -18 -21
-47 -19 -60 6 -9 16 -8 25 6 40 21 23 37 24 54 4z m1245 -301 c0 -22 -36 -27
-43 -5 -3 10 0 12 11 8 12 -4 14 -2 10 10 -4 11 -2 14 8 11 8 -3 14 -13 14
-24z m163 -43 c-4 -19 -39 -22 -46 -3 -2 7 2 10 12 6 12 -5 15 -2 10 10 -5 12
-2 15 10 10 10 -4 16 -14 14 -23z m-388 -26 c0 -18 -25 -26 -39 -12 -17 17
-13 31 5 16 15 -12 16 -11 9 11 -7 22 -6 23 9 11 9 -7 16 -19 16 -26z m255
-40 c0 -25 -4 -31 -27 -33 -18 -2 -30 3 -37 16 -14 26 -2 36 21 15 15 -13 18
-14 18 -2 0 8 -6 21 -12 28 -11 10 -8 12 12 9 20 -2 25 -9 25 -33z m-125 -10
c6 -8 9 -19 5 -25 -10 -15 -45 -12 -45 5 0 10 6 12 18 8 15 -6 15 -5 3 10 -7
9 -9 17 -3 17 5 0 15 -7 22 -15z"/>
<path d="M2400 2700 c0 -93 4 -150 10 -150 6 0 10 55 10 145 l0 145 168 -2
167 -3 0 -165 0 -165 -167 -3 c-145 -2 -168 0 -168 13 0 8 -5 15 -11 15 -6 0
-9 -10 -7 -22 3 -23 4 -23 186 -25 l182 -1 0 184 0 184 -185 0 -185 0 0 -150z"/>
<path d="M2460 2776 c0 -2 7 -9 15 -16 13 -11 14 -10 9 4 -5 14 -24 23 -24 12z"/>
<path d="M2556 2766 c4 -10 21 -14 52 -13 26 0 37 2 25 4 -13 3 -23 10 -23 16
0 7 -4 6 -10 -3 -8 -12 -13 -13 -29 -3 -17 11 -19 10 -15 -1z"/>
<path d="M2480 2715 c-7 -9 -10 -18 -6 -22 3 -3 6 -1 6 6 0 7 5 9 10 6 6 -3
10 1 10 9 0 20 -4 20 -20 1z"/>
<path d="M2556 2714 c-3 -9 -4 -19 -1 -22 3 -3 5 1 5 9 0 12 2 11 10 -1 9 -13
11 -13 20 0 5 8 10 20 10 25 0 6 -5 3 -10 -5 -8 -12 -12 -13 -19 -2 -6 11 -10
10 -15 -4z"/>
<path d="M2517 2704 c3 -7 9 -14 14 -14 14 0 10 17 -5 23 -10 4 -13 1 -9 -9z"/>
<path d="M2472 2654 c-11 -13 -9 -14 14 -10 17 3 31 0 36 -7 4 -7 8 -7 8 -2 0
6 -5 17 -11 25 -9 12 -12 13 -16 1 -3 -8 -8 -9 -12 -3 -4 6 -11 4 -19 -4z"/>
<path d="M2577 2656 c-4 -10 -1 -13 9 -9 15 6 19 23 5 23 -5 0 -11 -7 -14 -14z"/>
<path d="M2610 2663 c0 -5 5 -15 10 -23 8 -12 10 -11 10 8 0 12 -4 22 -10 22
-5 0 -10 -3 -10 -7z"/>
<path d="M2660 2662 c0 -7 -4 -10 -10 -7 -5 3 -10 -1 -10 -11 0 -13 3 -14 15
-4 12 10 15 10 15 0 0 -8 3 -11 6 -7 3 3 1 14 -5 24 -6 11 -11 13 -11 5z"/>
<path d="M2685 2660 c3 -5 8 -10 11 -10 2 0 4 5 4 10 0 6 -5 10 -11 10 -5 0
-7 -4 -4 -10z"/>
<path d="M2540 2644 c0 -8 5 -12 10 -9 6 4 8 11 5 16 -9 14 -15 11 -15 -7z"/>
<path d="M2415 3938 c4 -11 2 -18 -4 -18 -6 0 -11 -5 -11 -12 0 -8 6 -6 17 5
14 14 15 19 4 29 -10 11 -11 10 -6 -4z"/>
<path d="M2702 3905 c15 -16 20 -17 30 -6 11 11 10 13 0 7 -7 -4 -21 -2 -30 5
-15 12 -15 11 0 -6z"/>
<path d="M2846 3882 l-30 -37 35 33 c20 18 39 29 44 25 4 -5 5 -2 1 5 -11 18
-18 14 -50 -26z"/>
<path d="M2375 3870 c-10 -11 -16 -22 -14 -24 2 -2 12 7 22 20 22 29 17 32 -8
4z"/>
<path d="M2090 3871 c0 -6 4 -13 10 -16 6 -3 7 1 4 9 -7 18 -14 21 -14 7z"/>
<path d="M2665 3809 c-4 -6 -5 -12 -2 -15 2 -3 7 2 10 11 7 17 1 20 -8 4z"/>
<path d="M2317 3799 c7 -7 15 -10 18 -7 3 3 -2 9 -12 12 -14 6 -15 5 -6 -5z"/>
<path d="M2975 3738 l-50 -53 53 50 c48 46 57 55 49 55 -1 0 -25 -24 -52 -52z"/>
<path d="M2304 3758 l-19 -23 23 19 c21 18 27 26 19 26 -2 0 -12 -10 -23 -22z"/>
<path d="M2675 3770 c4 -6 11 -8 16 -5 14 9 11 15 -7 15 -8 0 -12 -5 -9 -10z"/>
<path d="M1860 3756 c7 -7 14 -6 21 1 9 9 7 12 -9 10 -14 -1 -18 -5 -12 -11z"/>
<path d="M1976 3762 c-2 -4 4 -8 14 -8 10 0 16 4 14 8 -3 4 -9 8 -14 8 -5 0
-11 -4 -14 -8z"/>
<path d="M2375 3750 c10 -11 20 -20 23 -20 3 0 -3 9 -13 20 -10 11 -20 20 -23
20 -3 0 3 -9 13 -20z"/>
<path d="M2682 3730 c0 -14 2 -19 5 -12 2 6 2 18 0 25 -3 6 -5 1 -5 -13z"/>
<path d="M3106 3737 c3 -10 9 -15 12 -12 3 3 0 11 -7 18 -10 9 -11 8 -5 -6z"/>
<path d="M2000 3733 c0 -5 12 -20 28 -34 l27 -24 -25 30 c-14 17 -26 32 -27
34 -2 2 -3 0 -3 -6z"/>
<path d="M1844 3698 l-19 -23 23 19 c21 18 27 26 19 26 -2 0 -12 -10 -23 -22z"/>
<path d="M1885 3710 c-3 -6 1 -7 9 -4 18 7 21 14 7 14 -6 0 -13 -4 -16 -10z"/>
<path d="M3070 3716 c0 -2 7 -7 16 -10 8 -3 12 -2 9 4 -6 10 -25 14 -25 6z"/>
<path d="M1667 3699 c7 -7 15 -10 18 -7 3 3 -2 9 -12 12 -14 6 -15 5 -6 -5z"/>
<path d="M3275 3669 c-4 -6 -5 -12 -2 -15 2 -3 7 2 10 11 7 17 1 20 -8 4z"/>
<path d="M3156 3647 c3 -10 9 -15 12 -12 3 3 0 11 -7 18 -10 9 -11 8 -5 -6z"/>
<path d="M3235 3635 c0 -13 3 -21 8 -18 4 2 7 10 7 18 0 8 -3 16 -7 18 -5 3
-8 -5 -8 -18z"/>
<path d="M2640 3643 c0 -6 8 -17 18 -24 16 -13 16 -13 2 6 -8 11 -16 22 -17
24 -2 2 -3 0 -3 -6z"/>
<path d="M3300 3640 c-8 -5 -12 -12 -9 -15 4 -3 12 1 19 10 14 17 11 19 -10 5z"/>
<path d="M1711 3624 c-1 -18 26 -37 34 -24 3 5 0 10 -9 10 -8 0 -17 6 -19 13
-4 7 -6 8 -6 1z"/>
<path d="M1869 3603 l-24 -28 28 24 c25 23 32 31 24 31 -2 0 -14 -12 -28 -27z"/>
<path d="M3160 3576 l-44 -51 52 50 c29 27 52 51 52 52 0 12 -22 -7 -60 -51z"/>
<path d="M1680 3591 c0 -4 21 -27 47 -51 26 -25 39 -34 28 -21 -32 38 -75 80
-75 72z"/>
<path d="M2682 3529 c-2 -45 2 -60 18 -74 11 -10 20 -13 20 -8 0 6 -7 13 -14
16 -10 4 -16 25 -19 64 l-3 58 -2 -56z"/>
<path d="M3234 3550 c0 -13 4 -16 10 -10 7 7 7 13 0 20 -6 6 -10 3 -10 -10z"/>
<path d="M2280 3556 c0 -9 30 -14 35 -6 4 6 -3 10 -14 10 -12 0 -21 -2 -21 -4z"/>
<path d="M2485 3538 c4 -11 2 -18 -4 -18 -6 0 -11 -5 -11 -12 0 -8 6 -6 17 5
14 14 15 19 4 29 -10 11 -11 10 -6 -4z"/>
<path d="M3174 3508 l-29 -33 35 30 c19 17 37 31 39 33 2 1 0 2 -5 2 -6 0 -23
-15 -40 -32z"/>
<path d="M3583 3491 c-7 -11 -25 -21 -40 -24 -28 -4 -28 -4 -2 -6 16 0 34 9
49 24 13 14 19 25 14 25 -5 0 -15 -9 -21 -19z"/>
<path d="M2880 3481 c0 -6 4 -13 10 -16 6 -3 7 1 4 9 -7 18 -14 21 -14 7z"/>
<path d="M3095 3428 l-40 -43 43 40 c39 36 47 45 39 45 -2 0 -21 -19 -42 -42z"/>
<path d="M3727 3439 c4 -13 8 -18 11 -10 2 7 -1 18 -6 23 -8 8 -9 4 -5 -13z"/>
<path d="M3349 3383 l-24 -28 28 24 c25 23 32 31 24 31 -2 0 -14 -12 -28 -27z"/>
<path d="M3717 3394 c-8 -13 20 -41 30 -30 3 3 1 6 -5 6 -6 0 -12 8 -14 18 -2
11 -6 13 -11 6z"/>
<path d="M2429 3373 c-13 -16 -12 -17 3 -5 9 8 23 10 29 6 8 -4 9 -3 5 4 -10
17 -21 15 -37 -5z"/>
<path d="M3623 3383 c15 -2 39 -2 55 0 15 2 2 4 -28 4 -30 0 -43 -2 -27 -4z"/>
<path d="M2435 3340 c4 -6 11 -8 16 -5 14 9 11 15 -7 15 -8 0 -12 -5 -9 -10z"/>
<path d="M1427 3329 c7 -7 15 -10 18 -7 3 3 -2 9 -12 12 -14 6 -15 5 -6 -5z"/>
<path d="M3238 3318 c9 -9 15 -9 24 0 9 9 7 12 -12 12 -19 0 -21 -3 -12 -12z"/>
<path d="M1460 3296 c0 -2 7 -7 16 -10 8 -3 12 -2 9 4 -6 10 -25 14 -25 6z"/>
<path d="M3691 3286 c-14 -17 11 -41 34 -32 16 6 20 32 6 40 -5 4 -7 -3 -4
-14 4 -14 0 -20 -12 -20 -12 0 -16 6 -12 20 6 24 4 25 -12 6z"/>
<path d="M3287 3254 c-21 -20 -37 -38 -35 -40 3 -2 22 14 43 36 48 50 43 52
-8 4z"/>
<path d="M3535 3271 c-6 -6 -41 -12 -80 -14 l-70 -3 71 -2 c53 -1 75 2 84 13
14 17 10 21 -5 6z"/>
<path d="M1480 3264 c0 -5 28 -36 63 -69 l62 -60 -60 65 c-33 35 -61 66 -62
69 -2 2 -3 0 -3 -5z"/>
<path d="M1183 3182 c1 -14 5 -18 11 -12 7 7 6 14 -1 21 -9 9 -12 7 -10 -9z"/>
<path d="M3150 3093 l-95 -98 98 95 c53 52 97 96 97 97 0 8 -12 -4 -100 -94z"/>
<path d="M1370 3065 c63 -63 117 -115 120 -115 2 0 -47 52 -110 115 -63 63
-117 115 -120 115 -2 0 47 -52 110 -115z"/>
<path d="M2260 3130 c-9 -6 -10 -10 -3 -10 6 0 15 5 18 10 8 12 4 12 -15 0z"/>
<path d="M3745 3131 c-3 -5 -1 -12 5 -16 5 -3 10 1 10 9 0 18 -6 21 -15 7z"/>
<path d="M3624 3088 l-29 -33 33 29 c30 28 37 36 29 36 -2 0 -16 -15 -33 -32z"/>
<path d="M1207 3077 c4 -6 -1 -8 -11 -4 -11 4 -15 3 -11 -4 4 -5 12 -8 18 -6
7 3 39 -21 72 -52 l60 -56 -58 61 c-32 33 -55 62 -52 65 3 3 -2 6 -10 6 -8 0
-11 -5 -8 -10z"/>
<path d="M1666 3073 c-6 -14 -5 -15 5 -6 7 7 10 15 7 18 -3 3 -9 -2 -12 -12z"/>
<path d="M3380 3083 c0 -6 11 -18 25 -27 19 -13 52 -16 157 -16 119 0 134 -2
153 -20 25 -23 51 -18 61 12 8 27 -17 52 -45 43 -11 -3 -21 -11 -21 -16 0 -5
-61 -9 -142 -9 -132 0 -143 2 -165 22 -13 12 -23 17 -23 11z m380 -28 c15 -18
5 -35 -21 -35 -21 0 -27 19 -6 21 9 0 9 2 -1 6 -6 2 -10 9 -6 14 8 13 20 11
34 -6z"/>
<path d="M3604 2980 c0 -13 4 -16 10 -10 7 7 7 13 0 20 -6 6 -10 3 -10 -10z"/>
<path d="M3455 2938 l-40 -43 43 40 c39 36 47 45 39 45 -2 0 -21 -19 -42 -42z"/>
<path d="M3539 2933 l-34 -38 40 35 c22 19 42 36 44 38 2 1 0 2 -5 2 -6 0 -26
-17 -45 -37z"/>
<path d="M1820 2818 c74 -76 136 -138 137 -138 8 0 -7 15 -134 140 l-138 135
135 -137z"/>
<path d="M3751 2936 c-9 -10 -8 -16 4 -26 13 -11 14 -10 9 5 -4 10 -1 21 7 26
8 5 9 9 3 9 -6 0 -17 -6 -23 -14z"/>
<path d="M1055 2910 c-3 -6 1 -7 9 -4 18 7 21 14 7 14 -6 0 -13 -4 -16 -10z"/>
<path d="M1086 2883 c-6 -14 -5 -15 5 -6 7 7 10 15 7 18 -3 3 -9 -2 -12 -12z"/>
<path d="M3090 2855 c19 -19 36 -35 39 -35 3 0 -10 16 -29 35 -19 19 -36 35
-39 35 -3 0 10 -16 29 -35z"/>
<path d="M1650 2871 c0 -6 4 -13 10 -16 6 -3 7 1 4 9 -7 18 -14 21 -14 7z"/>
<path d="M1681 2863 c1 -5 40 -44 88 -88 l86 -80 -80 86 c-75 81 -97 100 -94
82z"/>
<path d="M3760 2801 c0 -6 4 -13 10 -16 6 -3 7 1 4 9 -7 18 -14 21 -14 7z"/>
<path d="M1075 2790 c-3 -6 1 -7 9 -4 18 7 21 14 7 14 -6 0 -13 -4 -16 -10z"/>
<path d="M1110 2778 c0 -5 26 -7 58 -7 61 1 55 6 -15 11 -24 2 -43 0 -43 -4z"/>
<path d="M970 2745 c-19 -23 -3 -55 28 -55 20 0 46 -20 103 -76 l77 -77 67 1
c36 0 69 3 72 6 4 3 -27 6 -68 6 l-73 0 -89 90 c-49 50 -91 90 -94 90 -3 0 0
-7 7 -15 10 -12 9 -15 -4 -15 -21 0 -32 28 -17 43 9 9 16 9 31 -1 16 -10 18
-9 14 3 -8 19 -38 19 -54 0z"/>
<path d="M1116 2721 c-4 -5 3 -7 14 -4 23 6 26 13 6 13 -8 0 -17 -4 -20 -9z"/>
<path d="M3484 2699 c-3 -6 -1 -16 5 -22 8 -8 11 -5 11 11 0 24 -5 28 -16 11z"/>
<path d="M1410 2675 c13 -14 26 -25 28 -25 3 0 -5 11 -18 25 -13 14 -26 25
-28 25 -3 0 5 -11 18 -25z"/>
<path d="M1145 2681 c6 -11 3 -13 -13 -9 -13 4 -20 2 -16 -4 3 -5 14 -8 24 -5
12 3 30 -8 51 -29 l33 -34 130 2 131 2 -125 3 -124 4 -50 42 c-28 23 -46 35
-41 28z"/>
<path d="M3279 2633 l-24 -28 28 24 c25 23 32 31 24 31 -2 0 -14 -12 -28 -27z"/>
<path d="M3514 2608 c-4 -7 -3 -8 5 -4 6 4 20 2 29 -6 15 -12 16 -11 3 5 -16
20 -27 22 -37 5z"/>
<path d="M3496 2563 l-20 -27 27 20 c26 18 35 34 20 34 -5 0 -17 -13 -27 -27z"/>
<path d="M3380 2566 c0 -2 9 -6 20 -9 11 -3 18 -1 14 4 -5 9 -34 13 -34 5z"/>
<path d="M3120 2541 c-12 -24 -2 -31 25 -20 17 6 17 8 3 8 -25 1 -23 21 1 21
31 0 37 -21 11 -42 -15 -12 -18 -18 -7 -18 22 0 39 26 32 50 -8 26 -51 27 -65
1z"/>
<path d="M1341 2546 c8 -8 159 -12 159 -4 0 4 -37 8 -82 8 -45 0 -79 -2 -77
-4z"/>
<path d="M1635 2540 c4 -6 14 -8 24 -5 11 3 30 -9 56 -35 38 -39 41 -40 100
-38 l60 2 -56 3 c-50 4 -60 8 -94 43 -28 28 -48 40 -68 40 -17 0 -26 -4 -22
-10z"/>
<path d="M3355 2510 c-16 -17 -26 -30 -23 -30 9 0 60 51 56 55 -3 3 -17 -9
-33 -25z"/>
<path d="M3922 2462 c-21 -18 -21 -20 -4 -36 23 -20 46 -21 63 0 9 11 10 20 2
32 -15 24 -36 26 -61 4z m45 -3 c16 -16 5 -39 -18 -39 -21 0 -27 20 -6 21 9 0
9 2 -1 6 -6 2 -10 9 -6 14 7 12 18 11 31 -2z"/>
<path d="M1908 2463 c18 -2 45 -2 60 0 15 2 0 4 -33 4 -33 0 -45 -2 -27 -4z"/>
<path d="M3730 2415 c19 -19 36 -35 39 -35 3 0 -10 16 -29 35 -19 19 -36 35
-39 35 -3 0 10 -16 29 -35z"/>
<path d="M1210 2395 c-7 -9 -19 -14 -27 -11 -18 7 -54 -30 -47 -48 15 -39 78
-24 72 18 -2 13 5 24 20 32 33 16 38 24 15 24 -11 0 -26 -7 -33 -15z m-37 -42
c-6 -16 -5 -16 10 -4 9 7 17 9 17 3 0 -15 -28 -35 -40 -27 -15 10 -12 45 5 45
10 0 12 -6 8 -17z"/>
<path d="M1400 2400 c0 -6 33 -10 80 -10 47 0 80 4 80 10 0 6 -33 10 -80 10
-47 0 -80 -4 -80 -10z"/>
<path d="M2950 2396 c0 -2 7 -7 16 -10 8 -3 12 -2 9 4 -6 10 -25 14 -25 6z"/>
<path d="M3648 2391 c46 -5 59 -12 102 -53 27 -27 56 -48 66 -48 10 0 25 -7
35 -16 27 -24 61 -9 57 24 -4 32 -37 42 -58 17 -21 -25 -43 -17 -95 35 -48 49
-51 50 -105 48 l-55 -1 53 -6z m252 -90 c0 -23 -15 -35 -31 -25 -8 4 -7 9 2
15 10 6 11 9 2 9 -7 0 -13 5 -13 10 0 6 9 10 20 10 13 0 20 -7 20 -19z"/>
<path d="M3825 2391 c-3 -5 -1 -12 5 -16 5 -3 10 1 10 9 0 18 -6 21 -15 7z"/>
<path d="M2930 2374 c0 -6 6 -17 14 -23 10 -9 16 -8 26 4 11 13 10 14 -5 9
-10 -4 -21 -1 -26 7 -5 8 -9 9 -9 3z"/>
<path d="M1700 2316 c0 -8 -6 -17 -12 -19 -8 -4 -9 -6 -2 -6 18 -1 37 26 24
34 -5 3 -10 0 -10 -9z"/>
<path d="M1495 2313 c44 -3 67 -10 85 -26 l25 -22 -24 28 c-22 24 -30 27 -85
25 l-61 -2 60 -3z"/>
<path d="M1786 2292 l-19 -27 26 24 c28 26 32 31 20 31 -5 0 -17 -13 -27 -28z"/>
<path d="M1838 2313 c7 -3 16 -2 19 1 4 3 -2 6 -13 5 -11 0 -14 -3 -6 -6z"/>
<path d="M3549 2303 c-13 -16 -12 -17 4 -4 16 13 21 21 13 21 -2 0 -10 -8 -17
-17z"/>
<path d="M3740 2274 c25 -29 48 -52 53 -53 17 -2 2 17 -47 59 l-51 45 45 -51z"/>
<path d="M2085 2290 c-3 -6 1 -7 9 -4 18 7 21 14 7 14 -6 0 -13 -4 -16 -10z"/>
<path d="M2115 2269 c-4 -6 -5 -11 -4 -12 2 -1 18 -13 34 -27 l30 -25 -28 31
c-15 17 -24 33 -20 37 3 4 4 7 0 7 -3 0 -9 -5 -12 -11z"/>
<path d="M1334 2245 c-11 -27 25 -50 40 -26 4 5 -3 7 -14 4 -14 -4 -20 0 -20
12 0 11 5 15 16 11 8 -3 12 -2 9 4 -9 15 -25 12 -31 -5z"/>
<path d="M3414 2220 c0 -13 4 -16 10 -10 7 7 7 13 0 20 -6 6 -10 3 -10 -10z"/>
<path d="M3817 2219 c4 -13 8 -18 11 -10 2 7 -1 18 -6 23 -8 8 -9 4 -5 -13z"/>
<path d="M3787 2199 c7 -7 15 -10 18 -7 3 3 -2 9 -12 12 -14 6 -15 5 -6 -5z"/>
<path d="M1955 2110 c-3 -6 1 -7 9 -4 9 3 16 1 16 -5 0 -6 5 -11 11 -11 8 0 8
5 -1 15 -14 17 -26 19 -35 5z"/>
<path d="M2787 2081 c-4 -17 -3 -21 5 -13 5 5 8 16 6 23 -3 8 -7 3 -11 -10z"/>
<path d="M2095 2060 c-3 -6 1 -7 9 -4 18 7 21 14 7 14 -6 0 -13 -4 -16 -10z"/>
<path d="M2235 2050 c-3 -6 1 -7 9 -4 18 7 21 14 7 14 -6 0 -13 -4 -16 -10z"/>
<path d="M2125 2039 c-4 -6 -5 -12 -2 -15 2 -3 7 2 10 11 7 17 1 20 -8 4z"/>
<path d="M3195 2039 c-4 -6 -5 -12 -2 -15 2 -3 7 2 10 11 7 17 1 20 -8 4z"/>
<path d="M2266 2023 c-6 -14 -5 -15 5 -6 7 7 10 15 7 18 -3 3 -9 -2 -12 -12z"/>
<path d="M2431 2007 l-25 -32 32 29 c33 31 37 36 25 35 -5 0 -19 -14 -32 -32z"/>
<path d="M2928 2013 c6 -2 18 -2 25 0 6 3 1 5 -13 5 -14 0 -19 -2 -12 -5z"/>
<path d="M2971 2018 c2 -2 22 -19 44 -38 l40 -35 -34 38 c-19 20 -39 37 -45
37 -5 0 -7 -1 -5 -2z"/>
<path d="M3220 2010 c-9 -6 -10 -10 -3 -10 6 0 15 5 18 10 8 12 4 12 -15 0z"/>
<path d="M3200 1875 c47 -47 87 -85 90 -85 2 0 -33 38 -80 85 -47 47 -87 85
-90 85 -2 0 33 -38 80 -85z"/>
<path d="M2772 1920 c-1 -18 16 -43 59 -87 34 -35 64 -63 67 -63 4 0 -21 28
-55 63 -34 34 -63 73 -66 87 l-4 25 -1 -25z"/>
<path d="M2621 1915 c-1 -13 31 -52 92 -110 l92 -90 -87 90 c-47 50 -88 99
-91 110 -5 20 -5 20 -6 0z"/>
<path d="M2787 1629 c7 -7 15 -10 18 -7 3 3 -2 9 -12 12 -14 6 -15 5 -6 -5z"/>
<path d="M1877 1393 c-312 -2 -476 -7 -472 -13 9 -14 2192 -14 2200 0 4 7
-137 10 -417 10 -233 0 -515 2 -628 3 -113 2 -420 2 -683 0z"/>
<path d="M1246 1190 c-14 -39 -26 -73 -26 -76 0 -11 29 -2 34 11 3 9 18 15 36
15 20 0 30 -5 30 -15 0 -8 7 -15 15 -15 19 0 19 3 -9 80 -13 36 -30 66 -39 68
-10 2 -23 -19 -41 -68z m54 -7 c0 -7 -7 -13 -16 -13 -11 0 -14 5 -10 16 3 9 6
21 6 27 0 16 20 -14 20 -30z"/>
<path d="M1370 1186 c0 -61 3 -76 15 -76 10 0 15 10 15 31 0 26 3 30 23 27 16
-2 23 -11 25 -30 5 -39 32 -37 32 1 0 17 -4 33 -10 36 -6 4 -5 13 3 25 20 32
-2 54 -57 58 l-46 3 0 -75z m77 38 c6 -16 -12 -34 -34 -34 -7 0 -13 11 -13 25
0 18 5 25 20 25 11 0 23 -7 27 -16z"/>
<path d="M1490 1250 c0 -5 11 -10 25 -10 24 0 25 -2 25 -65 0 -51 3 -65 15
-65 12 0 15 14 15 65 0 58 2 65 20 65 11 0 20 5 20 10 0 6 -27 10 -60 10 -33
0 -60 -4 -60 -10z"/>
<path d="M1630 1185 c0 -60 3 -75 15 -75 12 0 15 15 15 75 0 60 -3 75 -15 75
-12 0 -15 -15 -15 -75z"/>
<path d="M1690 1185 c0 -60 3 -75 15 -75 10 0 15 10 15 30 0 27 3 30 30 30 20
0 30 5 30 15 0 10 -10 15 -30 15 -23 0 -30 4 -30 20 0 16 7 20 35 20 19 0 35
5 35 10 0 6 -22 10 -50 10 l-50 0 0 -75z"/>
<path d="M1810 1185 c0 -60 3 -75 15 -75 12 0 15 15 15 75 0 60 -3 75 -15 75
-12 0 -15 -15 -15 -75z"/>
<path d="M1887 1242 c-23 -26 -22 -94 1 -115 24 -22 65 -21 85 1 10 10 17 22
17 25 0 14 -23 7 -36 -10 -22 -31 -49 -4 -49 48 0 38 3 44 23 47 13 2 25 -3
28 -12 7 -17 34 -22 34 -7 0 38 -75 54 -103 23z"/>
<path d="M2010 1185 c0 -60 3 -75 15 -75 12 0 15 15 15 75 0 60 -3 75 -15 75
-12 0 -15 -15 -15 -75z"/>
<path d="M2090 1198 c-12 -35 -25 -69 -27 -75 -3 -7 2 -13 10 -13 8 0 17 7 21
15 3 9 18 15 36 15 20 0 30 -5 30 -15 0 -8 7 -15 15 -15 19 0 19 3 -9 80 -13
36 -30 66 -38 68 -10 2 -22 -18 -38 -60z m50 -15 c0 -7 -7 -13 -16 -13 -11 0
-14 5 -10 16 3 9 6 21 6 27 0 16 20 -14 20 -30z"/>
<path d="M2210 1185 l0 -75 44 0 c25 0 48 5 51 10 4 6 -8 10 -29 10 l-36 0 0
65 c0 51 -3 65 -15 65 -12 0 -15 -15 -15 -75z"/>
<path d="M2380 1185 c0 -60 3 -75 15 -75 12 0 15 15 15 75 0 60 -3 75 -15 75
-12 0 -15 -15 -15 -75z"/>
<path d="M2440 1185 c0 -59 3 -75 14 -75 11 0 16 14 18 48 l3 47 28 -47 c42
-72 57 -64 57 27 0 59 -3 75 -14 75 -11 0 -16 -14 -18 -47 l-3 -48 -28 48
c-42 71 -57 63 -57 -28z"/>
<path d="M2580 1250 c0 -5 9 -10 20 -10 18 0 20 -7 20 -65 0 -51 3 -65 15 -65
12 0 15 14 15 65 0 58 2 65 20 65 11 0 20 5 20 10 0 6 -25 10 -55 10 -30 0
-55 -4 -55 -10z"/>
<path d="M2710 1185 l0 -75 50 0 c28 0 50 5 50 10 0 6 -16 10 -35 10 -31 0
-35 3 -35 25 0 21 5 25 30 25 17 0 30 5 30 10 0 6 -13 10 -30 10 -23 0 -30 4
-30 20 0 16 7 20 35 20 19 0 35 5 35 10 0 6 -22 10 -50 10 l-50 0 0 -75z"/>
<path d="M2830 1185 l0 -75 50 0 c28 0 50 5 50 10 0 6 -16 10 -35 10 l-35 0 0
65 c0 51 -3 65 -15 65 -12 0 -15 -15 -15 -75z"/>
<path d="M2950 1185 l0 -75 45 0 c25 0 45 5 45 10 0 6 -13 10 -30 10 l-30 0 0
65 c0 51 -3 65 -15 65 -12 0 -15 -15 -15 -75z"/>
<path d="M3060 1185 c0 -60 3 -75 15 -75 12 0 15 15 15 75 0 60 -3 75 -15 75
-12 0 -15 -15 -15 -75z"/>
<path d="M3137 1242 c-21 -23 -22 -81 -1 -110 10 -15 25 -22 48 -22 39 0 56
15 56 52 0 23 -4 28 -24 28 -14 0 -28 -4 -31 -10 -3 -5 1 -10 9 -10 20 0 21
-29 1 -36 -34 -13 -57 42 -39 90 8 21 40 21 52 0 14 -25 35 -8 22 17 -14 25
-71 26 -93 1z"/>
<path d="M3270 1185 l0 -75 50 0 c28 0 50 5 50 10 0 6 -16 10 -35 10 -31 0
-35 3 -35 25 0 21 5 25 30 25 17 0 30 5 30 10 0 6 -13 10 -30 10 -23 0 -30 4
-30 20 0 16 7 20 35 20 19 0 35 5 35 10 0 6 -22 10 -50 10 l-50 0 0 -75z"/>
<path d="M3390 1185 c0 -59 3 -75 14 -75 11 0 16 14 18 48 l3 47 28 -47 c42
-72 57 -64 57 27 0 59 -3 75 -14 75 -11 0 -16 -14 -18 -47 l-3 -48 -28 48
c-42 71 -57 63 -57 -28z"/>
<path d="M3549 1243 c-21 -24 -16 -103 6 -120 36 -26 95 -11 95 24 0 18 -27
16 -34 -2 -8 -23 -35 -18 -47 9 -23 49 17 112 46 73 15 -20 35 -22 35 -4 0 37
-75 52 -101 20z"/>
<path d="M3680 1185 l0 -75 50 0 c58 0 68 17 13 22 -30 2 -38 7 -38 23 0 15 8
21 33 23 17 2 32 7 32 12 0 5 -15 10 -32 12 -48 4 -44 32 5 36 55 5 45 22 -13
22 l-50 0 0 -75z"/>
<path d="M1460 1010 c-74 -3 114 -9 463 -14 613 -9 1879 3 1612 15 -168 8
-1897 7 -2075 -1z"/>
<path d="M4259 145 c0 -5 -2 -20 -3 -32 -2 -14 3 -23 11 -23 7 0 13 -8 14 -17
0 -15 2 -15 8 2 10 23 4 38 -10 30 -5 -4 -9 -1 -9 4 0 6 9 11 20 11 14 0 18 5
13 16 -5 13 -7 13 -14 2 -7 -11 -11 -10 -19 2 -5 8 -10 11 -11 5z"/>
<path d="M4337 114 c4 -25 2 -39 -8 -45 -10 -6 -7 -9 11 -9 24 0 25 3 22 45
-3 29 -9 45 -17 45 -10 0 -12 -10 -8 -36z"/>
<path d="M4403 143 c20 -5 20 -7 8 -51 -6 -20 -6 -32 0 -32 5 0 9 7 9 15 0 9
7 29 15 45 l16 30 -33 -1 c-18 -1 -25 -3 -15 -6z"/>
<path d="M4467 143 c-11 -19 -5 -74 9 -80 18 -7 46 16 37 31 -4 6 -7 20 -8 31
0 20 -29 33 -38 18z m30 -29 c-9 -9 -28 6 -21 18 4 6 10 6 17 -1 6 -6 8 -13 4
-17z m1 -33 c3 -8 -1 -12 -9 -9 -7 2 -15 10 -17 17 -3 8 1 12 9 9 7 -2 15 -10
17 -17z"/>
<path d="M4543 143 c20 -5 20 -7 8 -51 -6 -20 -6 -32 0 -32 5 0 9 8 9 18 0 9
7 29 14 45 15 27 15 27 -17 26 -18 -1 -24 -3 -14 -6z"/>
<path d="M4607 143 c-11 -19 -5 -74 9 -80 18 -7 46 16 37 31 -4 6 -7 20 -8 31
0 20 -29 33 -38 18z m33 -18 c0 -8 -4 -15 -9 -15 -13 0 -22 16 -14 24 11 11
23 6 23 -9z m-2 -44 c3 -8 -1 -12 -9 -9 -7 2 -15 10 -17 17 -3 8 1 12 9 9 7
-2 15 -10 17 -17z"/>
<path d="M4677 144 c-16 -16 -7 -44 14 -44 12 0 19 -5 16 -12 -2 -7 -12 -12
-21 -12 -9 1 -16 -3 -16 -8 0 -5 10 -8 23 -6 19 3 22 9 22 43 0 28 -5 41 -15
43 -9 1 -19 0 -23 -4z m33 -25 c0 -5 -7 -9 -15 -9 -15 0 -20 12 -9 23 8 8 24
-1 24 -14z"/>
<path d="M4744 139 c-4 -8 -3 -9 4 -5 21 13 37 -6 18 -19 -15 -11 -15 -13 -1
-19 9 -3 13 -11 10 -17 -4 -6 -13 -8 -21 -5 -8 3 -14 1 -14 -5 0 -6 10 -9 23
-7 19 3 22 9 22 43 0 29 -4 41 -17 43 -9 2 -20 -2 -24 -9z"/>
<path d="M4815 140 c-3 -5 0 -7 8 -4 25 9 28 -12 7 -39 -26 -33 -25 -37 8 -36
16 1 20 3 10 6 -16 4 -16 6 -2 29 9 13 14 31 10 39 -6 17 -32 20 -41 5z"/>
<path d="M4880 131 c0 -11 9 -21 21 -24 24 -7 20 -33 -5 -31 -9 1 -16 -3 -16
-8 0 -5 10 -8 23 -6 27 4 37 45 13 54 -21 8 -20 21 2 27 10 3 6 5 -10 6 -21 1
-28 -4 -28 -18z"/>
</g>
</svg>
